# xmcd CD database file
#
# Track frame offsets:
#	182
#	11957
#	26160
#	39935
#	52107
#	65525
#	79285
#	96710
#	111825
#	125322
#
# Disc length: 1835 seconds
#
# Revision: 5
# Processed by: cddbd v1.5.2PL0 Copyright (c) Steve Scherf et al.
# Submitted via: CDex 1.70beta2
#
DISCID=8d07290a
DTITLE=Reba McEntire - Out Of A Dream
DYEAR=1979
DGENRE=Country
TTITLE0=I Still Long To Hold You Now And Then
TTITLE1=Daddy
TTITLE2=Last Night, Ev'ry Night
TTITLE3=Make Me Feel Like A Woman Wants To Feel
TTITLE4=That Makes Two Of Us (With Jacky Ward)
TTITLE5=Sweet Dreams
TTITLE6=I'm A Woman
TTITLE7=Rain Fallin'
TTITLE8=Runaway Heart
TTITLE9=It's Gotta Be Love
EXTD=YEAR: 1979
EXTT0=
EXTT1=
EXTT2=
EXTT3=
EXTT4=
EXTT5=
EXTT6=
EXTT7=
EXTT8=
EXTT9=
PLAYORDER=
